<?xml version="1.0" encoding="UTF-8"?><!DOCTYPE svg PUBLIC "-//W3C//DTD SVG 1.1//EN"
	"http://www.w3.org/Graphics/SVG/1.1/DTD/svg11.dtd">
<svg version="1.1" xmlns="http://www.w3.org/2000/svg" x="0" y="0" width="32" height="33" viewBox="0, 0, 32, 33">
	<g id="Livello_1" transform="translate(0, 1)">
		<g>
			<path
				d="M16.123,17.154 C20.793,17.154 24.592,13.346 24.592,8.665 C24.592,3.984 20.793,0.176 16.123,0.176 C11.453,0.176 7.654,3.984 7.654,8.665 C7.654,13.346 11.453,17.154 16.123,17.154 z M16.123,1.757 C19.921,1.757 23.012,4.856 23.012,8.666 C23.012,12.476 19.922,15.574 16.123,15.574 C12.325,15.574 9.235,12.475 9.235,8.666 C9.235,4.857 12.325,1.757 16.123,1.757 z M29.928,29.178 C29.719,29.197 29.511,29.133 29.35,28.999 C29.189,28.865 29.088,28.672 29.069,28.463 C29.048,28.232 29.018,28.001 28.979,27.772 C28.252,23.435 24.586,20.202 20.264,20.083 C20.178,20.081 20.092,20.08 20.006,20.08 L12.212,20.08 L11.954,20.083 C7.363,20.209 3.578,23.812 3.149,28.463 L3.084,29.164 C3.056,29.453 3.152,29.74 3.349,29.954 C3.547,30.171 3.818,30.291 4.112,30.291 L26.204,30.291 C26.64,30.291 26.994,30.645 26.994,31.081 C26.994,31.517 26.64,31.871 26.204,31.871 L4.112,31.871 C3.378,31.87 2.677,31.561 2.182,31.019 C1.688,30.476 1.444,29.75 1.511,29.019 L1.576,28.318 C2.078,22.871 6.521,18.651 11.911,18.503 C12.011,18.5 12.112,18.499 12.212,18.499 L20.006,18.499 C20.107,18.499 20.207,18.5 20.307,18.503 C25.383,18.643 29.686,22.431 30.538,27.511 C30.583,27.777 30.618,28.049 30.643,28.318 C30.683,28.753 30.363,29.137 29.928,29.177 L29.928,29.178 z"
				fill="#FF6200" id="a" />
			<path d="M0,-1 L32,-1 L32,32 L0,32 z" fill="#333333" display="none" />
		</g>
	</g>
</svg>
